<?xml version="1.0" encoding="UTF-8"?>
<svg height="128px" viewBox="0 0 128 128" width="128px" xmlns="http://www.w3.org/2000/svg" xmlns:xlink="http://www.w3.org/1999/xlink">
    <linearGradient id="a" gradientTransform="matrix(0.232143 0 0 0.328947 -8.5672 263.826942)" gradientUnits="userSpaceOnUse" x1="88.595886" x2="536.595886" y1="-449.394012" y2="-449.394012">
        <stop offset="0" stop-color="#77767b"/>
        <stop offset="0.0384615" stop-color="#c0bfbc"/>
        <stop offset="0.0768555" stop-color="#9a9996"/>
        <stop offset="0.923077" stop-color="#9a9996"/>
        <stop offset="0.961538" stop-color="#c0bfbc"/>
        <stop offset="1" stop-color="#77767b"/>
    </linearGradient>
    <linearGradient id="b" gradientUnits="userSpaceOnUse">
        <stop offset="0" stop-color="#e5a50a"/>
        <stop offset="0.0710175" stop-color="#ffda85"/>
        <stop offset="0.148264" stop-color="#e5a50a"/>
        <stop offset="0.839834" stop-color="#ab7d09"/>
        <stop offset="0.932618" stop-color="#ffc74c"/>
        <stop offset="1" stop-color="#e5a50a"/>
    </linearGradient>
    <linearGradient id="c" gradientTransform="matrix(-0.5 0 0 0.5 -114 -32)" x1="-252" x2="-356" xlink:href="#b" y1="271.716095" y2="271.716095"/>
    <linearGradient id="d" gradientUnits="userSpaceOnUse">
        <stop offset="0" stop-color="#f6d32d"/>
        <stop offset="1" stop-color="#e6b510"/>
    </linearGradient>
    <linearGradient id="e" gradientTransform="matrix(0.5 0 0 0.482857 190 -27.988578)" x1="-300" x2="-300" xlink:href="#d" y1="252" y2="216"/>
    <linearGradient id="f" gradientUnits="userSpaceOnUse">
        <stop offset="0" stop-color="#f6d32d"/>
        <stop offset="1" stop-color="#ffc912"/>
    </linearGradient>
    <linearGradient id="g" gradientTransform="matrix(0.5 0 0 0.482857 190 -25.988578)" x1="-300" x2="-300" xlink:href="#f" y1="252" y2="216"/>
    <linearGradient id="h" gradientTransform="matrix(-0.5 0 0 0.5 -62 -84)" x1="-252" x2="-356" xlink:href="#b" y1="271.716095" y2="271.716095"/>
    <linearGradient id="i" gradientTransform="matrix(0.5 0 0 0.482857 242 -79.988578)" x1="-300" x2="-300" xlink:href="#d" y1="252" y2="216"/>
    <linearGradient id="j" gradientTransform="matrix(0.5 0 0 0.482857 242 -77.988578)" x1="-300" x2="-300" xlink:href="#f" y1="252" y2="216"/>
    <clipPath id="k">
        <rect height="128" width="128"/>
    </clipPath>
    <clipPath id="l">
        <rect height="128" width="128"/>
    </clipPath>
    <filter id="m" height="100%" width="100%" x="0%" y="0%">
        <feColorMatrix in="SourceGraphic" type="matrix" values="0 0 0 0 1 0 0 0 0 1 0 0 0 0 1 0 0 0 1 0"/>
    </filter>
    <mask id="n">
        <g clip-path="url(#l)" filter="url(#m)">
            <g clip-path="url(#k)">
                <path d="m 20 16 h 88 c 4.417969 0 8 3.582031 8 8 v 84 c 0 4.417969 -3.582031 8 -8 8 h -88 c -4.417969 0 -8 -3.582031 -8 -8 v -84 c 0 -4.417969 3.582031 -8 8 -8 z m 0 0" fill="url(#a)"/>
                <path d="m 20 12 h 88 c 4.417969 0 8 3.582031 8 8 v 84 c 0 4.417969 -3.582031 8 -8 8 h -88 c -4.417969 0 -8 -3.582031 -8 -8 v -84 c 0 -4.417969 3.582031 -8 8 -8 z m 0 0" fill="#deddda"/>
                <path d="m 56 62 h -36 c -4.417969 0 -8 3.582031 -8 8 v 34 c 0 4.417969 3.582031 8 8 8 h 36 c 4.417969 0 8 -3.582031 8 -8 v -34 c 0 -4.417969 -3.582031 -8 -8 -8 z m 0 0" fill="url(#c)"/>
                <path d="m 56 60 h -36 c -4.417969 0 -8 3.582031 -8 8 v 34 c 0 4.417969 3.582031 8 8 8 h 36 c 4.417969 0 8 -3.582031 8 -8 v -34 c 0 -4.417969 -3.582031 -8 -8 -8 z m 0 0" fill="#f6d32d"/>
                <path d="m 28.101562 72 h 19.796876 c 2.265624 0 4.101562 1.835938 4.101562 4.101562 v 17.796876 c 0 2.265624 -1.835938 4.101562 -4.101562 4.101562 h -19.796876 c -2.265624 0 -4.101562 -1.835938 -4.101562 -4.101562 v -17.796876 c 0 -2.265624 1.835938 -4.101562 4.101562 -4.101562 z m 0 0" fill="url(#e)"/>
                <path d="m 28.101562 74 h 19.796876 c 2.265624 0 4.101562 1.835938 4.101562 4.101562 v 17.796876 c 0 2.265624 -1.835938 4.101562 -4.101562 4.101562 h -19.796876 c -2.265624 0 -4.101562 -1.835938 -4.101562 -4.101562 v -17.796876 c 0 -2.265624 1.835938 -4.101562 4.101562 -4.101562 z m 0 0" fill="url(#g)"/>
                <path d="m 88 72 h 8 c 4.417969 0 8 3.582031 8 8 v 8 c 0 4.417969 -3.582031 8 -8 8 h -8 c -4.417969 0 -8 -3.582031 -8 -8 v -8 c 0 -4.417969 3.582031 -8 8 -8 z m 0 0" fill="#613583"/>
                <path d="m 88 70 h 8 c 4.417969 0 8 3.582031 8 8 v 8 c 0 4.417969 -3.582031 8 -8 8 h -8 c -4.417969 0 -8 -3.582031 -8 -8 v -8 c 0 -4.417969 3.582031 -8 8 -8 z m 0 0" fill="#c061cb"/>
                <path d="m 34 26 h 8 c 4.417969 0 8 3.582031 8 8 v 8 c 0 4.417969 -3.582031 8 -8 8 h -8 c -4.417969 0 -8 -3.582031 -8 -8 v -8 c 0 -4.417969 3.582031 -8 8 -8 z m 0 0" fill="#613583"/>
                <path d="m 34 24 h 8 c 4.417969 0 8 3.582031 8 8 v 8 c 0 4.417969 -3.582031 8 -8 8 h -8 c -4.417969 0 -8 -3.582031 -8 -8 v -8 c 0 -4.417969 3.582031 -8 8 -8 z m 0 0" fill="#c061cb"/>
                <path d="m 108 10 h -36 c -4.417969 0 -8 3.582031 -8 8 v 34 c 0 4.417969 3.582031 8 8 8 h 36 c 4.417969 0 8 -3.582031 8 -8 v -34 c 0 -4.417969 -3.582031 -8 -8 -8 z m 0 0" fill="url(#h)"/>
                <path d="m 108 8 h -36 c -4.417969 0 -8 3.582031 -8 8 v 34 c 0 4.417969 3.582031 8 8 8 h 36 c 4.417969 0 8 -3.582031 8 -8 v -34 c 0 -4.417969 -3.582031 -8 -8 -8 z m 0 0" fill="#f6d32d"/>
                <path d="m 80.101562 20 h 19.796876 c 2.265624 0 4.101562 1.835938 4.101562 4.101562 v 17.796876 c 0 2.265624 -1.835938 4.101562 -4.101562 4.101562 h -19.796876 c -2.265624 0 -4.101562 -1.835938 -4.101562 -4.101562 v -17.796876 c 0 -2.265624 1.835938 -4.101562 4.101562 -4.101562 z m 0 0" fill="url(#i)"/>
                <path d="m 80.101562 22 h 19.796876 c 2.265624 0 4.101562 1.835938 4.101562 4.101562 v 17.796876 c 0 2.265624 -1.835938 4.101562 -4.101562 4.101562 h -19.796876 c -2.265624 0 -4.101562 -1.835938 -4.101562 -4.101562 v -17.796876 c 0 -2.265624 1.835938 -4.101562 4.101562 -4.101562 z m 0 0" fill="url(#j)"/>
            </g>
        </g>
    </mask>
    <mask id="o">
        <g filter="url(#m)">
            <rect fill-opacity="0.8" height="128" width="128"/>
        </g>
    </mask>
    <linearGradient id="p" gradientTransform="matrix(0 0.37 -0.98462 0 295.38501 -30.360001)" gradientUnits="userSpaceOnUse" x1="300" x2="428" y1="235" y2="235">
        <stop offset="0" stop-color="#f9f06b"/>
        <stop offset="1" stop-color="#f5c211"/>
    </linearGradient>
    <clipPath id="q">
        <rect height="128" width="128"/>
    </clipPath>
    <clipPath id="r">
        <rect height="128" width="128"/>
    </clipPath>
    <path d="m 20 16 h 88 c 4.417969 0 8 3.582031 8 8 v 84 c 0 4.417969 -3.582031 8 -8 8 h -88 c -4.417969 0 -8 -3.582031 -8 -8 v -84 c 0 -4.417969 3.582031 -8 8 -8 z m 0 0" fill="url(#a)"/>
    <path d="m 20 12 h 88 c 4.417969 0 8 3.582031 8 8 v 84 c 0 4.417969 -3.582031 8 -8 8 h -88 c -4.417969 0 -8 -3.582031 -8 -8 v -84 c 0 -4.417969 3.582031 -8 8 -8 z m 0 0" fill="#deddda"/>
    <path d="m 56 62 h -36 c -4.417969 0 -8 3.582031 -8 8 v 34 c 0 4.417969 3.582031 8 8 8 h 36 c 4.417969 0 8 -3.582031 8 -8 v -34 c 0 -4.417969 -3.582031 -8 -8 -8 z m 0 0" fill="url(#c)"/>
    <path d="m 56 60 h -36 c -4.417969 0 -8 3.582031 -8 8 v 34 c 0 4.417969 3.582031 8 8 8 h 36 c 4.417969 0 8 -3.582031 8 -8 v -34 c 0 -4.417969 -3.582031 -8 -8 -8 z m 0 0" fill="#f6d32d"/>
    <path d="m 28.101562 72 h 19.796876 c 2.265624 0 4.101562 1.835938 4.101562 4.101562 v 17.796876 c 0 2.265624 -1.835938 4.101562 -4.101562 4.101562 h -19.796876 c -2.265624 0 -4.101562 -1.835938 -4.101562 -4.101562 v -17.796876 c 0 -2.265624 1.835938 -4.101562 4.101562 -4.101562 z m 0 0" fill="url(#e)"/>
    <path d="m 28.101562 74 h 19.796876 c 2.265624 0 4.101562 1.835938 4.101562 4.101562 v 17.796876 c 0 2.265624 -1.835938 4.101562 -4.101562 4.101562 h -19.796876 c -2.265624 0 -4.101562 -1.835938 -4.101562 -4.101562 v -17.796876 c 0 -2.265624 1.835938 -4.101562 4.101562 -4.101562 z m 0 0" fill="url(#g)"/>
    <path d="m 88 72 h 8 c 4.417969 0 8 3.582031 8 8 v 8 c 0 4.417969 -3.582031 8 -8 8 h -8 c -4.417969 0 -8 -3.582031 -8 -8 v -8 c 0 -4.417969 3.582031 -8 8 -8 z m 0 0" fill="#613583"/>
    <path d="m 88 70 h 8 c 4.417969 0 8 3.582031 8 8 v 8 c 0 4.417969 -3.582031 8 -8 8 h -8 c -4.417969 0 -8 -3.582031 -8 -8 v -8 c 0 -4.417969 3.582031 -8 8 -8 z m 0 0" fill="#c061cb"/>
    <path d="m 34 26 h 8 c 4.417969 0 8 3.582031 8 8 v 8 c 0 4.417969 -3.582031 8 -8 8 h -8 c -4.417969 0 -8 -3.582031 -8 -8 v -8 c 0 -4.417969 3.582031 -8 8 -8 z m 0 0" fill="#613583"/>
    <path d="m 34 24 h 8 c 4.417969 0 8 3.582031 8 8 v 8 c 0 4.417969 -3.582031 8 -8 8 h -8 c -4.417969 0 -8 -3.582031 -8 -8 v -8 c 0 -4.417969 3.582031 -8 8 -8 z m 0 0" fill="#c061cb"/>
    <path d="m 108 10 h -36 c -4.417969 0 -8 3.582031 -8 8 v 34 c 0 4.417969 3.582031 8 8 8 h 36 c 4.417969 0 8 -3.582031 8 -8 v -34 c 0 -4.417969 -3.582031 -8 -8 -8 z m 0 0" fill="url(#h)"/>
    <path d="m 108 8 h -36 c -4.417969 0 -8 3.582031 -8 8 v 34 c 0 4.417969 3.582031 8 8 8 h 36 c 4.417969 0 8 -3.582031 8 -8 v -34 c 0 -4.417969 -3.582031 -8 -8 -8 z m 0 0" fill="#f6d32d"/>
    <path d="m 80.101562 20 h 19.796876 c 2.265624 0 4.101562 1.835938 4.101562 4.101562 v 17.796876 c 0 2.265624 -1.835938 4.101562 -4.101562 4.101562 h -19.796876 c -2.265624 0 -4.101562 -1.835938 -4.101562 -4.101562 v -17.796876 c 0 -2.265624 1.835938 -4.101562 4.101562 -4.101562 z m 0 0" fill="url(#i)"/>
    <path d="m 80.101562 22 h 19.796876 c 2.265624 0 4.101562 1.835938 4.101562 4.101562 v 17.796876 c 0 2.265624 -1.835938 4.101562 -4.101562 4.101562 h -19.796876 c -2.265624 0 -4.101562 -1.835938 -4.101562 -4.101562 v -17.796876 c 0 -2.265624 1.835938 -4.101562 4.101562 -4.101562 z m 0 0" fill="url(#j)"/>
    <g clip-path="url(#r)" mask="url(#n)">
        <g clip-path="url(#q)" mask="url(#o)">
            <path d="m 128 80.640625 v 47.359375 h -128 v -47.359375 z m 0 0" fill="url(#p)"/>
            <path d="m 13.308594 80.640625 l 47.355468 47.359375 h 21.214844 l -47.359375 -47.359375 z m 42.421875 0 l 47.363281 47.359375 h 21.214844 l -47.363282 -47.359375 z m 42.429687 0 l 29.839844 29.839844 v -21.210938 l -8.628906 -8.628906 z m -98.160156 7.90625 v 21.214844 l 18.238281 18.238281 h 21.214844 z m 0 0"/>
        </g>
    </g>
</svg>
